<mxfile host="app.diagrams.net" modified="2024-01-13T04:38:14.043Z" agent="Mozilla/5.0 (Windows NT 10.0; Win64; x64) AppleWebKit/537.36 (KHTML, like Gecko) Chrome/120.0.0.0 Safari/537.36" etag="6NmwdbYdB25oR-mOYkVO" version="22.1.16" type="github">
  <diagram name="Page-1" id="ZB7aAMJd4eDQ774ikY8W">
    <mxGraphModel dx="2206" dy="2318" grid="1" gridSize="10" guides="1" tooltips="1" connect="1" arrows="1" fold="1" page="1" pageScale="1" pageWidth="850" pageHeight="1100" math="0" shadow="0">
      <root>
        <mxCell id="0" />
        <mxCell id="1" parent="0" />
        <mxCell id="tR3j2yOGs6IdBFS4nz_w-4" value="" style="edgeStyle=orthogonalEdgeStyle;rounded=1;sketch=1;hachureGap=4;jiggle=2;curveFitting=1;orthogonalLoop=1;jettySize=auto;html=1;fontFamily=Architects Daughter;fontSource=https%3A%2F%2Ffonts.googleapis.com%2Fcss%3Ffamily%3DArchitects%2BDaughter;fontSize=16;curved=0;" edge="1" parent="1" source="tR3j2yOGs6IdBFS4nz_w-1" target="tR3j2yOGs6IdBFS4nz_w-3">
          <mxGeometry relative="1" as="geometry" />
        </mxCell>
        <mxCell id="tR3j2yOGs6IdBFS4nz_w-5" value="Purchase" style="edgeLabel;html=1;align=center;verticalAlign=middle;resizable=0;points=[];fontSize=20;fontFamily=Architects Daughter;rounded=1;" vertex="1" connectable="0" parent="tR3j2yOGs6IdBFS4nz_w-4">
          <mxGeometry x="-0.0842" y="22" relative="1" as="geometry">
            <mxPoint x="-55" y="-22" as="offset" />
          </mxGeometry>
        </mxCell>
        <mxCell id="tR3j2yOGs6IdBFS4nz_w-40" style="edgeStyle=orthogonalEdgeStyle;rounded=1;sketch=1;hachureGap=4;jiggle=2;curveFitting=1;orthogonalLoop=1;jettySize=auto;html=1;entryX=0.5;entryY=0;entryDx=0;entryDy=0;fontFamily=Architects Daughter;fontSource=https%3A%2F%2Ffonts.googleapis.com%2Fcss%3Ffamily%3DArchitects%2BDaughter;fontSize=20;fontColor=default;exitX=0.5;exitY=1;exitDx=0;exitDy=0;" edge="1" parent="1" source="tR3j2yOGs6IdBFS4nz_w-1" target="tR3j2yOGs6IdBFS4nz_w-11">
          <mxGeometry relative="1" as="geometry" />
        </mxCell>
        <mxCell id="tR3j2yOGs6IdBFS4nz_w-41" value="Have" style="edgeLabel;html=1;align=center;verticalAlign=middle;resizable=0;points=[];fontSize=20;fontFamily=Architects Daughter;fontColor=default;" vertex="1" connectable="0" parent="tR3j2yOGs6IdBFS4nz_w-40">
          <mxGeometry x="-0.3397" relative="1" as="geometry">
            <mxPoint x="94" y="-10" as="offset" />
          </mxGeometry>
        </mxCell>
        <mxCell id="tR3j2yOGs6IdBFS4nz_w-1" value="Users" style="rounded=1;whiteSpace=wrap;html=1;sketch=1;hachureGap=4;jiggle=2;curveFitting=1;fontFamily=Architects Daughter;fontSource=https%3A%2F%2Ffonts.googleapis.com%2Fcss%3Ffamily%3DArchitects%2BDaughter;fontSize=20;fillColor=#ffe6cc;strokeColor=#d79b00;" vertex="1" parent="1">
          <mxGeometry x="680" y="-230" width="120" height="60" as="geometry" />
        </mxCell>
        <mxCell id="tR3j2yOGs6IdBFS4nz_w-7" value="" style="edgeStyle=orthogonalEdgeStyle;rounded=1;sketch=1;hachureGap=4;jiggle=2;curveFitting=1;orthogonalLoop=1;jettySize=auto;html=1;fontFamily=Architects Daughter;fontSource=https%3A%2F%2Ffonts.googleapis.com%2Fcss%3Ffamily%3DArchitects%2BDaughter;fontSize=16;curved=0;" edge="1" parent="1" source="tR3j2yOGs6IdBFS4nz_w-3" target="tR3j2yOGs6IdBFS4nz_w-6">
          <mxGeometry relative="1" as="geometry" />
        </mxCell>
        <mxCell id="tR3j2yOGs6IdBFS4nz_w-8" value="Associated" style="edgeLabel;html=1;align=center;verticalAlign=middle;resizable=0;points=[];fontSize=20;fontFamily=Architects Daughter;" vertex="1" connectable="0" parent="tR3j2yOGs6IdBFS4nz_w-7">
          <mxGeometry x="-0.3026" y="-5" relative="1" as="geometry">
            <mxPoint as="offset" />
          </mxGeometry>
        </mxCell>
        <mxCell id="tR3j2yOGs6IdBFS4nz_w-3" value="Subscription" style="rounded=1;whiteSpace=wrap;html=1;sketch=1;hachureGap=4;jiggle=2;curveFitting=1;fontFamily=Architects Daughter;fontSource=https%3A%2F%2Ffonts.googleapis.com%2Fcss%3Ffamily%3DArchitects%2BDaughter;fontSize=20;fillColor=#ffe6cc;strokeColor=#d79b00;" vertex="1" parent="1">
          <mxGeometry x="400" y="60" width="120" height="60" as="geometry" />
        </mxCell>
        <mxCell id="tR3j2yOGs6IdBFS4nz_w-12" value="" style="edgeStyle=orthogonalEdgeStyle;rounded=1;sketch=1;hachureGap=4;jiggle=2;curveFitting=1;orthogonalLoop=1;jettySize=auto;html=1;fontFamily=Architects Daughter;fontSource=https%3A%2F%2Ffonts.googleapis.com%2Fcss%3Ffamily%3DArchitects%2BDaughter;fontSize=16;curved=0;" edge="1" parent="1" source="tR3j2yOGs6IdBFS4nz_w-6" target="tR3j2yOGs6IdBFS4nz_w-11">
          <mxGeometry relative="1" as="geometry" />
        </mxCell>
        <mxCell id="tR3j2yOGs6IdBFS4nz_w-14" value="" style="edgeStyle=orthogonalEdgeStyle;rounded=1;sketch=1;hachureGap=4;jiggle=2;curveFitting=1;orthogonalLoop=1;jettySize=auto;html=1;fontFamily=Architects Daughter;fontSource=https%3A%2F%2Ffonts.googleapis.com%2Fcss%3Ffamily%3DArchitects%2BDaughter;fontSize=16;" edge="1" parent="1" source="tR3j2yOGs6IdBFS4nz_w-6" target="tR3j2yOGs6IdBFS4nz_w-13">
          <mxGeometry relative="1" as="geometry" />
        </mxCell>
        <mxCell id="tR3j2yOGs6IdBFS4nz_w-15" value="Group of" style="edgeLabel;html=1;align=center;verticalAlign=middle;resizable=0;points=[];fontSize=20;fontFamily=Architects Daughter;" vertex="1" connectable="0" parent="tR3j2yOGs6IdBFS4nz_w-14">
          <mxGeometry x="-0.024" y="1" relative="1" as="geometry">
            <mxPoint as="offset" />
          </mxGeometry>
        </mxCell>
        <mxCell id="tR3j2yOGs6IdBFS4nz_w-6" value="Plans" style="whiteSpace=wrap;html=1;fontSize=20;fontFamily=Architects Daughter;fillColor=#ffe6cc;strokeColor=#d79b00;rounded=1;sketch=1;hachureGap=4;jiggle=2;curveFitting=1;fontSource=https%3A%2F%2Ffonts.googleapis.com%2Fcss%3Ffamily%3DArchitects%2BDaughter;" vertex="1" parent="1">
          <mxGeometry x="760" y="180" width="120" height="60" as="geometry" />
        </mxCell>
        <mxCell id="tR3j2yOGs6IdBFS4nz_w-11" value="Permissions" style="ellipse;whiteSpace=wrap;html=1;fontSize=20;fontFamily=Architects Daughter;fillColor=#e1d5e7;strokeColor=#9673a6;rounded=1;sketch=1;hachureGap=4;jiggle=2;curveFitting=1;fontSource=https%3A%2F%2Ffonts.googleapis.com%2Fcss%3Ffamily%3DArchitects%2BDaughter;" vertex="1" parent="1">
          <mxGeometry x="1030" y="170" width="80" height="80" as="geometry" />
        </mxCell>
        <mxCell id="tR3j2yOGs6IdBFS4nz_w-21" value="" style="edgeStyle=orthogonalEdgeStyle;rounded=1;sketch=1;hachureGap=4;jiggle=2;curveFitting=1;orthogonalLoop=1;jettySize=auto;html=1;fontFamily=Architects Daughter;fontSource=https%3A%2F%2Ffonts.googleapis.com%2Fcss%3Ffamily%3DArchitects%2BDaughter;fontSize=16;" edge="1" parent="1" source="tR3j2yOGs6IdBFS4nz_w-13" target="tR3j2yOGs6IdBFS4nz_w-20">
          <mxGeometry relative="1" as="geometry" />
        </mxCell>
        <mxCell id="tR3j2yOGs6IdBFS4nz_w-30" style="edgeStyle=orthogonalEdgeStyle;rounded=1;sketch=1;hachureGap=4;jiggle=2;curveFitting=1;orthogonalLoop=1;jettySize=auto;html=1;entryX=1;entryY=0.5;entryDx=0;entryDy=0;fontFamily=Architects Daughter;fontSource=https%3A%2F%2Ffonts.googleapis.com%2Fcss%3Ffamily%3DArchitects%2BDaughter;fontSize=16;" edge="1" parent="1" source="tR3j2yOGs6IdBFS4nz_w-13" target="tR3j2yOGs6IdBFS4nz_w-28">
          <mxGeometry relative="1" as="geometry" />
        </mxCell>
        <mxCell id="tR3j2yOGs6IdBFS4nz_w-13" value="Courses" style="whiteSpace=wrap;html=1;fontSize=20;fontFamily=Architects Daughter;fillColor=#ffe6cc;strokeColor=#d79b00;rounded=1;sketch=1;hachureGap=4;jiggle=2;curveFitting=1;fontSource=https%3A%2F%2Ffonts.googleapis.com%2Fcss%3Ffamily%3DArchitects%2BDaughter;" vertex="1" parent="1">
          <mxGeometry x="760" y="480" width="120" height="60" as="geometry" />
        </mxCell>
        <mxCell id="tR3j2yOGs6IdBFS4nz_w-27" value="" style="edgeStyle=orthogonalEdgeStyle;rounded=1;sketch=1;hachureGap=4;jiggle=2;curveFitting=1;orthogonalLoop=1;jettySize=auto;html=1;fontFamily=Architects Daughter;fontSource=https%3A%2F%2Ffonts.googleapis.com%2Fcss%3Ffamily%3DArchitects%2BDaughter;fontSize=16;entryX=1;entryY=0.5;entryDx=0;entryDy=0;" edge="1" parent="1" source="tR3j2yOGs6IdBFS4nz_w-20" target="tR3j2yOGs6IdBFS4nz_w-26">
          <mxGeometry relative="1" as="geometry" />
        </mxCell>
        <mxCell id="tR3j2yOGs6IdBFS4nz_w-29" value="" style="edgeStyle=orthogonalEdgeStyle;rounded=1;sketch=1;hachureGap=4;jiggle=2;curveFitting=1;orthogonalLoop=1;jettySize=auto;html=1;fontFamily=Architects Daughter;fontSource=https%3A%2F%2Ffonts.googleapis.com%2Fcss%3Ffamily%3DArchitects%2BDaughter;fontSize=16;" edge="1" parent="1" source="tR3j2yOGs6IdBFS4nz_w-20" target="tR3j2yOGs6IdBFS4nz_w-28">
          <mxGeometry relative="1" as="geometry" />
        </mxCell>
        <mxCell id="tR3j2yOGs6IdBFS4nz_w-34" style="edgeStyle=orthogonalEdgeStyle;rounded=1;sketch=1;hachureGap=4;jiggle=2;curveFitting=1;orthogonalLoop=1;jettySize=auto;html=1;entryX=0.994;entryY=0.609;entryDx=0;entryDy=0;fontFamily=Architects Daughter;fontSource=https%3A%2F%2Ffonts.googleapis.com%2Fcss%3Ffamily%3DArchitects%2BDaughter;fontSize=16;entryPerimeter=0;" edge="1" parent="1" source="tR3j2yOGs6IdBFS4nz_w-20" target="tR3j2yOGs6IdBFS4nz_w-32">
          <mxGeometry relative="1" as="geometry" />
        </mxCell>
        <mxCell id="tR3j2yOGs6IdBFS4nz_w-20" value="Lessions" style="whiteSpace=wrap;html=1;fontSize=20;fontFamily=Architects Daughter;fillColor=#ffe6cc;strokeColor=#d79b00;rounded=1;sketch=1;hachureGap=4;jiggle=2;curveFitting=1;fontSource=https%3A%2F%2Ffonts.googleapis.com%2Fcss%3Ffamily%3DArchitects%2BDaughter;" vertex="1" parent="1">
          <mxGeometry x="760" y="670" width="120" height="60" as="geometry" />
        </mxCell>
        <mxCell id="tR3j2yOGs6IdBFS4nz_w-33" value="" style="edgeStyle=orthogonalEdgeStyle;rounded=1;sketch=1;hachureGap=4;jiggle=2;curveFitting=1;orthogonalLoop=1;jettySize=auto;html=1;fontFamily=Architects Daughter;fontSource=https%3A%2F%2Ffonts.googleapis.com%2Fcss%3Ffamily%3DArchitects%2BDaughter;fontSize=16;exitX=0.5;exitY=0;exitDx=0;exitDy=0;" edge="1" parent="1" source="tR3j2yOGs6IdBFS4nz_w-26" target="tR3j2yOGs6IdBFS4nz_w-32">
          <mxGeometry relative="1" as="geometry" />
        </mxCell>
        <mxCell id="tR3j2yOGs6IdBFS4nz_w-26" value="Topics" style="whiteSpace=wrap;html=1;fontSize=20;fontFamily=Architects Daughter;fillColor=#ffe6cc;strokeColor=#d79b00;rounded=1;sketch=1;hachureGap=4;jiggle=2;curveFitting=1;fontSource=https%3A%2F%2Ffonts.googleapis.com%2Fcss%3Ffamily%3DArchitects%2BDaughter;" vertex="1" parent="1">
          <mxGeometry x="520" y="790" width="120" height="60" as="geometry" />
        </mxCell>
        <mxCell id="tR3j2yOGs6IdBFS4nz_w-43" value="" style="edgeStyle=orthogonalEdgeStyle;rounded=1;sketch=1;hachureGap=4;jiggle=2;curveFitting=1;orthogonalLoop=1;jettySize=auto;html=1;fontFamily=Architects Daughter;fontSource=https%3A%2F%2Ffonts.googleapis.com%2Fcss%3Ffamily%3DArchitects%2BDaughter;fontSize=20;fontColor=default;" edge="1" parent="1" source="tR3j2yOGs6IdBFS4nz_w-28" target="tR3j2yOGs6IdBFS4nz_w-42">
          <mxGeometry relative="1" as="geometry" />
        </mxCell>
        <mxCell id="tR3j2yOGs6IdBFS4nz_w-44" value="List of" style="edgeLabel;html=1;align=center;verticalAlign=middle;resizable=0;points=[];fontSize=20;fontFamily=Architects Daughter;fontColor=default;" vertex="1" connectable="0" parent="tR3j2yOGs6IdBFS4nz_w-43">
          <mxGeometry x="-0.0962" y="2" relative="1" as="geometry">
            <mxPoint as="offset" />
          </mxGeometry>
        </mxCell>
        <mxCell id="tR3j2yOGs6IdBFS4nz_w-28" value="Quiz" style="whiteSpace=wrap;html=1;fontSize=20;fontFamily=Architects Daughter;fillColor=#ffe6cc;strokeColor=#d79b00;rounded=1;sketch=1;hachureGap=4;jiggle=2;curveFitting=1;fontSource=https%3A%2F%2Ffonts.googleapis.com%2Fcss%3Ffamily%3DArchitects%2BDaughter;glass=0;" vertex="1" parent="1">
          <mxGeometry x="1170" y="670" width="120" height="60" as="geometry" />
        </mxCell>
        <mxCell id="tR3j2yOGs6IdBFS4nz_w-32" value="Resources" style="ellipse;whiteSpace=wrap;html=1;fontSize=20;fontFamily=Architects Daughter;fillColor=#e1d5e7;strokeColor=#9673a6;rounded=1;sketch=1;hachureGap=4;jiggle=2;curveFitting=1;fontSource=https%3A%2F%2Ffonts.googleapis.com%2Fcss%3Ffamily%3DArchitects%2BDaughter;" vertex="1" parent="1">
          <mxGeometry x="540" y="650" width="80" height="80" as="geometry" />
        </mxCell>
        <mxCell id="tR3j2yOGs6IdBFS4nz_w-38" value="&lt;b style=&quot;font-size: 30px;&quot;&gt;Functional&amp;nbsp;Decomposition &amp;amp; &lt;br style=&quot;font-size: 30px;&quot;&gt;High Level Entity flow&lt;/b&gt;" style="rounded=0;whiteSpace=wrap;html=1;sketch=1;hachureGap=4;jiggle=2;curveFitting=1;fontFamily=Architects Daughter;fontSource=https%3A%2F%2Ffonts.googleapis.com%2Fcss%3Ffamily%3DArchitects%2BDaughter;fontSize=30;align=left;fillColor=none;dashed=1;dashPattern=8 8;" vertex="1" parent="1">
          <mxGeometry x="25" y="-440" width="495" height="160" as="geometry" />
        </mxCell>
        <mxCell id="tR3j2yOGs6IdBFS4nz_w-46" value="" style="edgeStyle=orthogonalEdgeStyle;rounded=1;sketch=1;hachureGap=4;jiggle=2;curveFitting=1;orthogonalLoop=1;jettySize=auto;html=1;fontFamily=Architects Daughter;fontSource=https%3A%2F%2Ffonts.googleapis.com%2Fcss%3Ffamily%3DArchitects%2BDaughter;fontSize=20;fontColor=default;" edge="1" parent="1" source="tR3j2yOGs6IdBFS4nz_w-42" target="tR3j2yOGs6IdBFS4nz_w-45">
          <mxGeometry relative="1" as="geometry" />
        </mxCell>
        <mxCell id="tR3j2yOGs6IdBFS4nz_w-48" value="" style="edgeStyle=orthogonalEdgeStyle;rounded=1;sketch=1;hachureGap=4;jiggle=2;curveFitting=1;orthogonalLoop=1;jettySize=auto;html=1;fontFamily=Architects Daughter;fontSource=https%3A%2F%2Ffonts.googleapis.com%2Fcss%3Ffamily%3DArchitects%2BDaughter;fontSize=20;fontColor=default;" edge="1" parent="1" source="tR3j2yOGs6IdBFS4nz_w-42" target="tR3j2yOGs6IdBFS4nz_w-47">
          <mxGeometry relative="1" as="geometry" />
        </mxCell>
        <mxCell id="tR3j2yOGs6IdBFS4nz_w-42" value="Questions" style="whiteSpace=wrap;html=1;fontSize=20;fontFamily=Architects Daughter;fillColor=#ffe6cc;strokeColor=#d79b00;rounded=1;sketch=1;hachureGap=4;jiggle=2;curveFitting=1;fontSource=https%3A%2F%2Ffonts.googleapis.com%2Fcss%3Ffamily%3DArchitects%2BDaughter;glass=0;" vertex="1" parent="1">
          <mxGeometry x="1170" y="840" width="120" height="60" as="geometry" />
        </mxCell>
        <mxCell id="tR3j2yOGs6IdBFS4nz_w-45" value="Options" style="whiteSpace=wrap;html=1;fontSize=20;fontFamily=Architects Daughter;fillColor=#ffe6cc;strokeColor=#d79b00;rounded=1;sketch=1;hachureGap=4;jiggle=2;curveFitting=1;fontSource=https%3A%2F%2Ffonts.googleapis.com%2Fcss%3Ffamily%3DArchitects%2BDaughter;glass=0;" vertex="1" parent="1">
          <mxGeometry x="1400" y="840" width="120" height="60" as="geometry" />
        </mxCell>
        <mxCell id="tR3j2yOGs6IdBFS4nz_w-47" value="Answer" style="whiteSpace=wrap;html=1;fontSize=20;fontFamily=Architects Daughter;fillColor=#ffe6cc;strokeColor=#d79b00;rounded=1;sketch=1;hachureGap=4;jiggle=2;curveFitting=1;fontSource=https%3A%2F%2Ffonts.googleapis.com%2Fcss%3Ffamily%3DArchitects%2BDaughter;glass=0;" vertex="1" parent="1">
          <mxGeometry x="1170" y="980" width="120" height="60" as="geometry" />
        </mxCell>
      </root>
    </mxGraphModel>
  </diagram>
</mxfile>
